# xmcd CD database file
#
# Track frame offsets:
#	150
#	20482
#	29417
#	43097
#	56955
#	70397
#	85179
#	100912
#	117252
#	129687
#	146197
#	160042
#	175445
#	186432
#
# Disc length: 2682 seconds
#
# Revision: 0
# Processed by: cddbd v1.5.2PL0 Copyright (c) Steve Scherf et al.
# Submitted via: CDex 1.51
#
DISCID=d20a780e
DTITLE=Al Hirt - King of Bourbon Street
DYEAR=2005
DGENRE=Jazz
TTITLE0=Stardust - A Man With a Horn
TTITLE1=Java
TTITLE2=Boy Meets Horn
TTITLE3=And The Angels Sing
TTITLE4=Oh Marie, Marie
TTITLE5=Rhapsody in Blue
TTITLE6=Gonna Fly Now
TTITLE7=Oh Mein Papa - Wonderland By Night
TTITLE8=Ciribiribin
TTITLE9=A Night in Tunisia
TTITLE10=Boy Meets Horn Reprise
TTITLE11=Tenderly
TTITLE12=Gospel of No Name City
TTITLE13=After You're Gone
EXTD=YEAR: 2005
EXTT0=
EXTT1=
EXTT2=
EXTT3=
EXTT4=
EXTT5=
EXTT6=
EXTT7=
EXTT8=
EXTT9=
EXTT10=
EXTT11=
EXTT12=
EXTT13=
PLAYORDER=
